<svg width="5257" height="2661" viewBox="0 0 5257 2661" fill="none" xmlns="http://www.w3.org/2000/svg">
<rect x="1256.5" width="2311" height="722" rx="361" fill="url(#paint0_linear_107_96)"/>
<path d="M1532.7 512V307.6L1481.1 336.8V279.2L1540.3 245.2H1597.5V512H1532.7ZM1673.79 512V245.2H1856.59V295.2H1738.59V353.2H1840.99V403.6H1738.59V462H1856.59V512H1673.79ZM1910.9 512V245.2H2040.9C2071.03 245.2 2094.63 252.267 2111.7 266.4C2128.77 280.267 2137.3 301.467 2137.3 330C2137.3 341.733 2134.9 353.333 2130.1 364.8C2125.3 376 2118.23 385.733 2108.9 394C2099.57 402 2087.83 407.2 2073.7 409.6L2069.7 387.6L2150.9 512H2068.5L2001.7 395.6L2030.5 420H1975.7V512H1910.9ZM1975.7 372.4H2030.1C2041.57 372.4 2050.63 369.333 2057.3 363.2C2063.97 357.067 2067.3 346.933 2067.3 332.8C2067.3 320.533 2064.23 311.2 2058.1 304.8C2052.23 298.4 2043.83 295.2 2032.9 295.2H1975.7V372.4ZM2305.04 512V245.2H2486.64V295.2H2369.84V358.8H2470.64V409.6H2369.84V512H2305.04ZM2651.97 517.6C2625.57 517.6 2602.63 512.667 2583.17 502.8C2563.7 492.667 2548.5 477.333 2537.57 456.8C2526.9 436.267 2521.57 410.267 2521.57 378.8C2521.57 333.2 2533.03 298.667 2555.97 275.2C2578.9 251.733 2610.9 240 2651.97 240C2678.37 240 2701.3 245.067 2720.77 255.2C2740.5 265.067 2755.7 280.133 2766.37 300.4C2777.03 320.667 2782.37 346.667 2782.37 378.4C2782.37 424.267 2770.9 458.933 2747.97 482.4C2725.3 505.867 2693.3 517.6 2651.97 517.6ZM2651.97 464.4C2665.57 464.4 2677.03 461.6 2686.37 456C2695.97 450.4 2703.17 441.333 2707.97 428.8C2713.03 416 2715.57 399.2 2715.57 378.4C2715.57 357.333 2713.03 340.533 2707.97 328C2703.17 315.467 2695.97 306.533 2686.37 301.2C2677.03 295.6 2665.57 292.8 2651.97 292.8C2638.37 292.8 2626.9 295.6 2617.57 301.2C2608.23 306.8 2601.03 315.867 2595.97 328.4C2591.17 340.933 2588.77 357.867 2588.77 379.2C2588.77 400.267 2591.17 417.067 2595.97 429.6C2601.03 441.867 2608.23 450.8 2617.57 456.4C2626.9 461.733 2638.37 464.4 2651.97 464.4ZM2828.09 512V245.2H2958.09C2988.22 245.2 3011.82 252.267 3028.89 266.4C3045.95 280.267 3054.49 301.467 3054.49 330C3054.49 341.733 3052.09 353.333 3047.29 364.8C3042.49 376 3035.42 385.733 3026.09 394C3016.75 402 3005.02 407.2 2990.89 409.6L2986.89 387.6L3068.09 512H2985.69L2918.89 395.6L2947.69 420H2892.89V512H2828.09ZM2892.89 372.4H2947.29C2958.75 372.4 2967.82 369.333 2974.49 363.2C2981.15 357.067 2984.49 346.933 2984.49 332.8C2984.49 320.533 2981.42 311.2 2975.29 304.8C2969.42 298.4 2961.02 295.2 2950.09 295.2H2892.89V372.4ZM3218.76 517.6C3192.36 517.6 3169.43 512.667 3149.96 502.8C3130.5 492.667 3115.3 477.333 3104.36 456.8C3093.7 436.267 3088.36 410.267 3088.36 378.8C3088.36 333.2 3099.83 298.667 3122.76 275.2C3145.7 251.733 3177.7 240 3218.76 240C3245.16 240 3268.1 245.067 3287.56 255.2C3307.3 265.067 3322.5 280.133 3333.16 300.4C3343.83 320.667 3349.16 346.667 3349.16 378.4C3349.16 424.267 3337.7 458.933 3314.76 482.4C3292.1 505.867 3260.1 517.6 3218.76 517.6ZM3218.76 464.4C3232.36 464.4 3243.83 461.6 3253.16 456C3262.76 450.4 3269.96 441.333 3274.76 428.8C3279.83 416 3282.36 399.2 3282.36 378.4C3282.36 357.333 3279.83 340.533 3274.76 328C3269.96 315.467 3262.76 306.533 3253.16 301.2C3243.83 295.6 3232.36 292.8 3218.76 292.8C3205.16 292.8 3193.7 295.6 3184.36 301.2C3175.03 306.8 3167.83 315.867 3162.76 328.4C3157.96 340.933 3155.56 357.867 3155.56 379.2C3155.56 400.267 3157.96 417.067 3162.76 429.6C3167.83 441.867 3175.03 450.8 3184.36 456.4C3193.7 461.733 3205.16 464.4 3218.76 464.4Z" fill="white"/>
<path d="M3710 464H3665.03L3669.28 441.002L3710.74 441.148C3726.26 441.148 3739.69 437.779 3751.02 431.041C3762.45 424.205 3771.62 414.977 3778.56 403.355C3785.49 391.637 3790.08 378.453 3792.33 363.805L3794.23 350.621C3795.4 341.246 3795.55 332.066 3794.67 323.082C3793.89 314.098 3791.69 305.992 3788.08 298.766C3784.47 291.441 3779.19 285.582 3772.26 281.188C3765.33 276.695 3756.39 274.303 3745.45 274.01L3697.11 273.863L3701.21 250.719L3746.04 250.865C3760.3 251.158 3772.5 254.088 3782.66 259.654C3792.91 265.123 3801.17 272.496 3807.42 281.773C3813.76 291.051 3818.06 301.646 3820.31 313.561C3822.65 325.475 3823.04 337.975 3821.48 351.061L3819.72 363.805C3817.67 378.258 3813.62 391.637 3807.56 403.941C3801.51 416.148 3793.74 426.744 3784.27 435.729C3774.8 444.713 3763.81 451.695 3751.31 456.676C3738.81 461.559 3725.04 464 3710 464ZM3716.89 250.719L3679.83 464H3652.14L3689.2 250.719H3716.89ZM3978.95 441.002L3974.85 464H3865.13L3869.09 441.002H3978.95ZM3907.9 250.719L3870.84 464H3843.16L3880.22 250.719H3907.9ZM3981.44 342.418L3977.48 365.416H3882.12L3886.22 342.418H3981.44ZM4010.44 250.719L4006.34 273.863H3898.09L3902.19 250.719H4010.44Z" fill="white"/>
<path d="M674.7 1398V931.1H994.6V1018.6H788.1V1120.1H967.3V1208.3H788.1V1310.5H994.6V1398H674.7ZM1089.64 1398V931.1H1277.24C1356.57 931.1 1414.91 950.933 1452.24 990.6C1489.57 1029.8 1508.24 1087.9 1508.24 1164.9C1508.24 1241.43 1489.57 1299.53 1452.24 1339.2C1414.91 1378.4 1356.57 1398 1277.24 1398H1089.64ZM1203.04 1310.5H1263.94C1305.94 1310.5 1337.67 1298.83 1359.14 1275.5C1381.07 1252.17 1392.04 1215.3 1392.04 1164.9C1392.04 1113.57 1381.07 1076.47 1359.14 1053.6C1337.67 1030.27 1305.94 1018.6 1263.94 1018.6H1203.04V1310.5ZM1802.2 1412.7C1730.33 1412.7 1676.43 1397.53 1640.5 1367.2C1605.03 1336.4 1587.3 1288.57 1587.3 1223.7V931.1H1705.6V1218.8C1705.6 1254.73 1712.83 1281.33 1727.3 1298.6C1741.76 1315.87 1764.86 1324.5 1796.6 1324.5C1825.53 1324.5 1847.93 1315.87 1863.8 1298.6C1880.13 1281.33 1888.3 1254.73 1888.3 1218.8V931.1H1996.1V1223.7C1996.1 1267.1 1987.7 1302.8 1970.9 1330.8C1954.56 1358.33 1931.93 1378.87 1903 1392.4C1874.06 1405.93 1840.46 1412.7 1802.2 1412.7ZM2301.71 1407.1C2227.04 1407.1 2169.87 1387.5 2130.21 1348.3C2091.01 1308.63 2071.41 1247.5 2071.41 1164.9C2071.41 1084.63 2090.31 1023.97 2128.11 982.9C2165.91 941.367 2223.77 920.6 2301.71 920.6C2326.44 920.6 2351.41 923.633 2376.61 929.7C2401.81 935.767 2426.31 944.167 2450.11 954.9V1053.6C2425.84 1037.73 2402.51 1026.3 2380.11 1019.3C2357.71 1012.3 2336.71 1008.8 2317.11 1008.8C2289.57 1008.8 2266.24 1013.7 2247.11 1023.5C2228.44 1033.3 2213.97 1049.63 2203.71 1072.5C2193.91 1095.37 2189.01 1126.17 2189.01 1164.9C2189.01 1203.63 2193.91 1234.2 2203.71 1256.6C2213.97 1279 2228.91 1295.1 2248.51 1304.9C2268.57 1314.23 2293.07 1318.9 2322.01 1318.9C2339.27 1318.9 2358.87 1315.63 2380.81 1309.1C2402.74 1302.57 2425.84 1291.37 2450.11 1275.5V1374.2C2437.04 1380.73 2422.11 1386.57 2405.31 1391.7C2388.97 1396.37 2371.71 1400.1 2353.51 1402.9C2335.77 1405.7 2318.51 1407.1 2301.71 1407.1ZM2495.53 1398L2671.93 931.1H2795.83L2961.03 1398H2844.83L2695.73 957.7L2751.03 952.8L2602.63 1398H2495.53ZM2594.93 1297.2L2618.03 1213.9H2830.13L2840.63 1297.2H2594.93ZM3211.57 1407.1C3136.9 1407.1 3079.74 1387.5 3040.07 1348.3C3000.87 1308.63 2981.27 1247.5 2981.27 1164.9C2981.27 1084.63 3000.17 1023.97 3037.97 982.9C3075.77 941.367 3133.64 920.6 3211.57 920.6C3236.3 920.6 3261.27 923.633 3286.47 929.7C3311.67 935.767 3336.17 944.167 3359.97 954.9V1053.6C3335.7 1037.73 3312.37 1026.3 3289.97 1019.3C3267.57 1012.3 3246.57 1008.8 3226.97 1008.8C3199.44 1008.8 3176.1 1013.7 3156.97 1023.5C3138.3 1033.3 3123.84 1049.63 3113.57 1072.5C3103.77 1095.37 3098.87 1126.17 3098.87 1164.9C3098.87 1203.63 3103.77 1234.2 3113.57 1256.6C3123.84 1279 3138.77 1295.1 3158.37 1304.9C3178.44 1314.23 3202.94 1318.9 3231.87 1318.9C3249.14 1318.9 3268.74 1315.63 3290.67 1309.1C3312.6 1302.57 3335.7 1291.37 3359.97 1275.5V1374.2C3346.9 1380.73 3331.97 1386.57 3315.17 1391.7C3298.84 1396.37 3281.57 1400.1 3263.37 1402.9C3245.64 1405.7 3228.37 1407.1 3211.57 1407.1ZM3445.99 1398V931.1H3559.39V1398H3445.99ZM3866.49 1407.8C3820.29 1407.8 3780.15 1399.17 3746.09 1381.9C3712.02 1364.17 3685.42 1337.33 3666.29 1301.4C3647.62 1265.47 3638.29 1219.97 3638.29 1164.9C3638.29 1085.1 3658.35 1024.67 3698.49 983.6C3738.62 942.533 3794.62 922 3866.49 922C3912.69 922 3952.82 930.867 3986.89 948.6C4021.42 965.867 4048.02 992.233 4066.69 1027.7C4085.35 1063.17 4094.69 1108.67 4094.69 1164.2C4094.69 1244.47 4074.62 1305.13 4034.49 1346.2C3994.82 1387.27 3938.82 1407.8 3866.49 1407.8ZM3866.49 1314.7C3890.29 1314.7 3910.35 1309.8 3926.69 1300C3943.49 1290.2 3956.09 1274.33 3964.49 1252.4C3973.35 1230 3977.79 1200.6 3977.79 1164.2C3977.79 1127.33 3973.35 1097.93 3964.49 1076C3956.09 1054.07 3943.49 1038.43 3926.69 1029.1C3910.35 1019.3 3890.29 1014.4 3866.49 1014.4C3842.69 1014.4 3822.62 1019.3 3806.29 1029.1C3789.95 1038.9 3777.35 1054.77 3768.49 1076.7C3760.09 1098.63 3755.89 1128.27 3755.89 1165.6C3755.89 1202.47 3760.09 1231.87 3768.49 1253.8C3777.35 1275.27 3789.95 1290.9 3806.29 1300.7C3822.62 1310.03 3842.69 1314.7 3866.49 1314.7ZM3840.59 880L3866.49 800.9H3975.69L3893.09 880H3840.59ZM4174.7 1398V931.1H4271.3L4511.4 1254.5L4477.8 1324.5V931.1H4582.1V1398H4496.7L4252.4 1078.8L4279 1027.7V1398H4174.7Z" fill="white"/>
<path d="M701.361 1846.33L697.943 1865.5H606.513L609.809 1846.33H701.361ZM642.157 1687.77L611.273 1865.5H588.202L619.086 1687.77H642.157ZM703.437 1764.18L700.141 1783.35H620.673L624.091 1764.18H703.437ZM727.606 1687.77L724.188 1707.05H633.979L637.396 1687.77H727.606ZM889.838 1687.77L858.954 1865.5H836.615L773.139 1727.44L749.213 1865.5H726.142L757.025 1687.77H779.242L842.963 1826.19L867.011 1687.77H889.838Z" fill="white"/>
<path d="M934.2 1931L1035 1664.2H1105.8L1200.2 1931H1133.8L1048.6 1679.4L1080.2 1676.6L995.4 1931H934.2ZM991 1873.4L1004.2 1825.8H1125.4L1131.4 1873.4H991ZM1233.96 1931V1664.2H1298.76V1880.2H1414.76V1931H1233.96ZM1474.34 1931V1714.2H1399.54V1664.2H1615.14V1714.2H1539.14V1931H1474.34ZM1606.08 1931L1706.88 1664.2H1777.68L1872.08 1931H1805.68L1720.48 1679.4L1752.08 1676.6L1667.28 1931H1606.08ZM1662.88 1873.4L1676.08 1825.8H1797.28L1803.28 1873.4H1662.88ZM2072.38 1931V1714.2H1997.58V1664.2H2213.18V1714.2H2137.18V1931H2072.38ZM2251.15 1931V1664.2H2433.95V1714.2H2315.95V1772.2H2418.35V1822.6H2315.95V1881H2433.95V1931H2251.15ZM2606.26 1936.2C2563.59 1936.2 2530.93 1925 2508.26 1902.6C2485.86 1879.93 2474.66 1845 2474.66 1797.8C2474.66 1751.93 2485.46 1717.27 2507.06 1693.8C2528.66 1670.07 2561.73 1658.2 2606.26 1658.2C2620.39 1658.2 2634.66 1659.93 2649.06 1663.4C2663.46 1666.87 2677.46 1671.67 2691.06 1677.8V1734.2C2677.19 1725.13 2663.86 1718.6 2651.06 1714.6C2638.26 1710.6 2626.26 1708.6 2615.06 1708.6C2599.33 1708.6 2585.99 1711.4 2575.06 1717C2564.39 1722.6 2556.13 1731.93 2550.26 1745C2544.66 1758.07 2541.86 1775.67 2541.86 1797.8C2541.86 1819.93 2544.66 1837.4 2550.26 1850.2C2556.13 1863 2564.66 1872.2 2575.86 1877.8C2587.33 1883.13 2601.33 1885.8 2617.86 1885.8C2627.73 1885.8 2638.93 1883.93 2651.46 1880.2C2663.99 1876.47 2677.19 1870.07 2691.06 1861V1917.4C2683.59 1921.13 2675.06 1924.47 2665.46 1927.4C2656.13 1930.07 2646.26 1932.2 2635.86 1933.8C2625.73 1935.4 2615.86 1936.2 2606.26 1936.2ZM2740.21 1931V1664.2H2795.41L2932.61 1849L2913.41 1889V1664.2H2973.01V1931H2924.21L2784.61 1748.6L2799.81 1719.4V1931H2740.21ZM3148.47 1936.6C3122.07 1936.6 3099.13 1931.67 3079.67 1921.8C3060.2 1911.67 3045 1896.33 3034.07 1875.8C3023.4 1855.27 3018.07 1829.27 3018.07 1797.8C3018.07 1752.2 3029.53 1717.67 3052.47 1694.2C3075.4 1670.73 3107.4 1659 3148.47 1659C3174.87 1659 3197.8 1664.07 3217.27 1674.2C3237 1684.07 3252.2 1699.13 3262.87 1719.4C3273.53 1739.67 3278.87 1765.67 3278.87 1797.4C3278.87 1843.27 3267.4 1877.93 3244.47 1901.4C3221.8 1924.87 3189.8 1936.6 3148.47 1936.6ZM3148.47 1883.4C3162.07 1883.4 3173.53 1880.6 3182.87 1875C3192.47 1869.4 3199.67 1860.33 3204.47 1847.8C3209.53 1835 3212.07 1818.2 3212.07 1797.4C3212.07 1776.33 3209.53 1759.53 3204.47 1747C3199.67 1734.47 3192.47 1725.53 3182.87 1720.2C3173.53 1714.6 3162.07 1711.8 3148.47 1711.8C3134.87 1711.8 3123.4 1714.6 3114.07 1720.2C3104.73 1725.8 3097.53 1734.87 3092.47 1747.4C3087.67 1759.93 3085.27 1776.87 3085.27 1798.2C3085.27 1819.27 3087.67 1836.07 3092.47 1848.6C3097.53 1860.87 3104.73 1869.8 3114.07 1875.4C3123.4 1880.73 3134.87 1883.4 3148.47 1883.4ZM3324.59 1931V1664.2H3389.39V1880.2H3505.39V1931H3324.59ZM3665.26 1936.6C3638.86 1936.6 3615.93 1931.67 3596.46 1921.8C3577 1911.67 3561.8 1896.33 3550.86 1875.8C3540.2 1855.27 3534.86 1829.27 3534.86 1797.8C3534.86 1752.2 3546.33 1717.67 3569.26 1694.2C3592.2 1670.73 3624.2 1659 3665.26 1659C3691.66 1659 3714.6 1664.07 3734.06 1674.2C3753.8 1684.07 3769 1699.13 3779.66 1719.4C3790.33 1739.67 3795.66 1765.67 3795.66 1797.4C3795.66 1843.27 3784.2 1877.93 3761.26 1901.4C3738.6 1924.87 3706.6 1936.6 3665.26 1936.6ZM3665.26 1883.4C3678.86 1883.4 3690.33 1880.6 3699.66 1875C3709.26 1869.4 3716.46 1860.33 3721.26 1847.8C3726.33 1835 3728.86 1818.2 3728.86 1797.4C3728.86 1776.33 3726.33 1759.53 3721.26 1747C3716.46 1734.47 3709.26 1725.53 3699.66 1720.2C3690.33 1714.6 3678.86 1711.8 3665.26 1711.8C3651.66 1711.8 3640.2 1714.6 3630.86 1720.2C3621.53 1725.8 3614.33 1734.87 3609.26 1747.4C3604.46 1759.93 3602.06 1776.87 3602.06 1798.2C3602.06 1819.27 3604.46 1836.07 3609.26 1848.6C3614.33 1860.87 3621.53 1869.8 3630.86 1875.4C3640.2 1880.73 3651.66 1883.4 3665.26 1883.4ZM3960.18 1936.6C3934.05 1936.6 3911.12 1931.93 3891.38 1922.6C3871.92 1913.27 3856.72 1898.47 3845.78 1878.2C3835.12 1857.67 3829.78 1830.87 3829.78 1797.8C3829.78 1765.27 3835.12 1738.73 3845.78 1718.2C3856.72 1697.67 3871.92 1682.6 3891.38 1673C3911.12 1663.13 3934.05 1658.2 3960.18 1658.2C3976.98 1658.2 3993.38 1659.93 4009.38 1663.4C4025.38 1666.87 4040.72 1671.67 4055.38 1677.8V1736.6C4039.38 1728.33 4024.45 1721.67 4010.58 1716.6C3996.98 1711.53 3982.85 1709 3968.18 1709C3952.98 1709 3939.92 1711.67 3928.98 1717C3918.32 1722.33 3910.18 1731.53 3904.58 1744.6C3898.98 1757.4 3896.18 1775 3896.18 1797.4C3896.18 1819.53 3898.98 1837.13 3904.58 1850.2C3910.45 1863 3918.58 1872.2 3928.98 1877.8C3939.38 1883.4 3951.52 1886.2 3965.38 1886.2C3972.58 1886.2 3979.25 1885.8 3985.38 1885C3991.78 1883.93 3997.38 1882.2 4002.18 1879.8V1832.6H3958.18V1782.2H4066.98V1907.8C4050.45 1916.87 4033.12 1923.93 4014.98 1929C3997.12 1934.07 3978.85 1936.6 3960.18 1936.6ZM4123.81 1931V1664.2H4188.61V1931H4123.81ZM4142.61 1643.4L4157.41 1598.2H4219.81L4172.61 1643.4H4142.61ZM4222.09 1931L4322.89 1664.2H4393.69L4488.09 1931H4421.69L4336.49 1679.4L4368.09 1676.6L4283.29 1931H4222.09ZM4278.89 1873.4L4292.09 1825.8H4413.29L4419.29 1873.4H4278.89Z" fill="white"/>
<path d="M4575.53 1687.77L4604.71 1776.88L4665.01 1687.77H4692.48L4612.76 1800.31L4601.41 1865.5H4578.46L4590.3 1797.75L4550.51 1687.77H4575.53Z" fill="white"/>
<path d="M201.3 2553.15C142.633 2553.15 97.7167 2537.75 66.55 2506.95C35.75 2475.78 20.35 2427.75 20.35 2362.85C20.35 2299.78 35.2 2252.12 64.9 2219.85C94.6 2187.22 140.067 2170.9 201.3 2170.9C220.733 2170.9 240.35 2173.28 260.15 2178.05C279.95 2182.82 299.2 2189.42 317.9 2197.85V2275.4C298.833 2262.93 280.5 2253.95 262.9 2248.45C245.3 2242.95 228.8 2240.2 213.4 2240.2C191.767 2240.2 173.433 2244.05 158.4 2251.75C143.733 2259.45 132.367 2272.28 124.3 2290.25C116.6 2308.22 112.75 2332.42 112.75 2362.85C112.75 2393.28 116.6 2417.3 124.3 2434.9C132.367 2452.5 144.1 2465.15 159.5 2472.85C175.267 2480.18 194.517 2483.85 217.25 2483.85C230.817 2483.85 246.217 2481.28 263.45 2476.15C280.683 2471.02 298.833 2462.22 317.9 2449.75V2527.3C307.633 2532.43 295.9 2537.02 282.7 2541.05C269.867 2544.72 256.3 2547.65 242 2549.85C228.067 2552.05 214.5 2553.15 201.3 2553.15ZM385.486 2546V2179.15H474.586V2476.15H634.086V2546H385.486ZM853.914 2553.7C817.614 2553.7 786.08 2546.92 759.314 2533.35C732.547 2519.42 711.647 2498.33 696.614 2470.1C681.947 2441.87 674.614 2406.12 674.614 2362.85C674.614 2300.15 690.38 2252.67 721.914 2220.4C753.447 2188.13 797.447 2172 853.914 2172C890.214 2172 921.747 2178.97 948.514 2192.9C975.647 2206.47 996.547 2227.18 1011.21 2255.05C1025.88 2282.92 1033.21 2318.67 1033.21 2362.3C1033.21 2425.37 1017.45 2473.03 985.914 2505.3C954.747 2537.57 910.747 2553.7 853.914 2553.7ZM853.914 2480.55C872.614 2480.55 888.38 2476.7 901.214 2469C914.414 2461.3 924.314 2448.83 930.914 2431.6C937.88 2414 941.364 2390.9 941.364 2362.3C941.364 2333.33 937.88 2310.23 930.914 2293C924.314 2275.77 914.414 2263.48 901.214 2256.15C888.38 2248.45 872.614 2244.6 853.914 2244.6C835.214 2244.6 819.447 2248.45 806.614 2256.15C793.78 2263.85 783.88 2276.32 776.914 2293.55C770.314 2310.78 767.014 2334.07 767.014 2363.4C767.014 2392.37 770.314 2415.47 776.914 2432.7C783.88 2449.57 793.78 2461.85 806.614 2469.55C819.447 2476.88 835.214 2480.55 853.914 2480.55ZM1264.93 2557.55C1208.46 2557.55 1166.11 2545.63 1137.88 2521.8C1110.01 2497.6 1096.08 2460.02 1096.08 2409.05V2179.15H1189.03V2405.2C1189.03 2433.43 1194.71 2454.33 1206.08 2467.9C1217.45 2481.47 1235.6 2488.25 1260.53 2488.25C1283.26 2488.25 1300.86 2481.47 1313.33 2467.9C1326.16 2454.33 1332.58 2433.43 1332.58 2405.2V2179.15H1417.28V2409.05C1417.28 2443.15 1410.68 2471.2 1397.48 2493.2C1384.65 2514.83 1366.86 2530.97 1344.13 2541.6C1321.4 2552.23 1295 2557.55 1264.93 2557.55ZM1495.15 2546V2179.15H1642.55C1704.89 2179.15 1750.72 2194.73 1780.05 2225.9C1809.39 2256.7 1824.05 2302.35 1824.05 2362.85C1824.05 2422.98 1809.39 2468.63 1780.05 2499.8C1750.72 2530.6 1704.89 2546 1642.55 2546H1495.15ZM1584.25 2477.25H1632.1C1665.1 2477.25 1690.04 2468.08 1706.9 2449.75C1724.14 2431.42 1732.75 2402.45 1732.75 2362.85C1732.75 2322.52 1724.14 2293.37 1706.9 2275.4C1690.04 2257.07 1665.1 2247.9 1632.1 2247.9H1584.25V2477.25ZM2200.42 2553.15C2141.75 2553.15 2096.84 2537.75 2065.67 2506.95C2034.87 2475.78 2019.47 2427.75 2019.47 2362.85C2019.47 2299.78 2034.32 2252.12 2064.02 2219.85C2093.72 2187.22 2139.19 2170.9 2200.42 2170.9C2219.85 2170.9 2239.47 2173.28 2259.27 2178.05C2279.07 2182.82 2298.32 2189.42 2317.02 2197.85V2275.4C2297.95 2262.93 2279.62 2253.95 2262.02 2248.45C2244.42 2242.95 2227.92 2240.2 2212.52 2240.2C2190.89 2240.2 2172.55 2244.05 2157.52 2251.75C2142.85 2259.45 2131.49 2272.28 2123.42 2290.25C2115.72 2308.22 2111.87 2332.42 2111.87 2362.85C2111.87 2393.28 2115.72 2417.3 2123.42 2434.9C2131.49 2452.5 2143.22 2465.15 2158.62 2472.85C2174.39 2480.18 2193.64 2483.85 2216.37 2483.85C2229.94 2483.85 2245.34 2481.28 2262.57 2476.15C2279.8 2471.02 2297.95 2462.22 2317.02 2449.75V2527.3C2306.75 2532.43 2295.02 2537.02 2281.82 2541.05C2268.99 2544.72 2255.42 2547.65 2241.12 2549.85C2227.19 2552.05 2213.62 2553.15 2200.42 2553.15ZM2547.96 2553.7C2511.66 2553.7 2480.12 2546.92 2453.36 2533.35C2426.59 2519.42 2405.69 2498.33 2390.66 2470.1C2375.99 2441.87 2368.66 2406.12 2368.66 2362.85C2368.66 2300.15 2384.42 2252.67 2415.96 2220.4C2447.49 2188.13 2491.49 2172 2547.96 2172C2584.26 2172 2615.79 2178.97 2642.56 2192.9C2669.69 2206.47 2690.59 2227.18 2705.26 2255.05C2719.92 2282.92 2727.26 2318.67 2727.26 2362.3C2727.26 2425.37 2711.49 2473.03 2679.96 2505.3C2648.79 2537.57 2604.79 2553.7 2547.96 2553.7ZM2547.96 2480.55C2566.66 2480.55 2582.42 2476.7 2595.26 2469C2608.46 2461.3 2618.36 2448.83 2624.96 2431.6C2631.92 2414 2635.41 2390.9 2635.41 2362.3C2635.41 2333.33 2631.92 2310.23 2624.96 2293C2618.36 2275.77 2608.46 2263.48 2595.26 2256.15C2582.42 2248.45 2566.66 2244.6 2547.96 2244.6C2529.26 2244.6 2513.49 2248.45 2500.66 2256.15C2487.82 2263.85 2477.92 2276.32 2470.96 2293.55C2464.36 2310.78 2461.06 2334.07 2461.06 2363.4C2461.06 2392.37 2464.36 2415.47 2470.96 2432.7C2477.92 2449.57 2487.82 2461.85 2500.66 2469.55C2513.49 2476.88 2529.26 2480.55 2547.96 2480.55ZM2790.12 2546V2179.15H2880.87L3006.82 2354.6L2958.42 2356.25L3088.77 2179.15H3177.32V2546H3088.22V2246.25L3105.82 2274.85L2980.42 2441.5L2856.12 2272.1L2875.37 2258.9V2546H2790.12ZM3344.36 2425.55V2546H3255.26V2179.15H3420.26C3463.16 2179.15 3496.89 2188.87 3521.46 2208.3C3546.03 2227.73 3558.31 2257.8 3558.31 2298.5C3558.31 2339.2 3546.03 2370.55 3521.46 2392.55C3496.89 2414.55 3463.16 2425.55 3420.26 2425.55H3344.36ZM3344.36 2356.8H3409.26C3418.79 2356.8 3426.86 2355.52 3433.46 2352.95C3440.43 2350.38 3445.93 2346.72 3449.96 2341.95C3453.99 2337.18 3456.93 2331.68 3458.76 2325.45C3460.96 2318.85 3462.06 2311.88 3462.06 2304.55C3462.06 2295.75 3460.96 2288.05 3458.76 2281.45C3456.93 2274.85 3453.99 2268.98 3449.96 2263.85C3445.93 2258.72 3440.43 2254.87 3433.46 2252.3C3426.86 2249.73 3418.79 2248.45 3409.26 2248.45H3344.36V2356.8ZM3789.35 2557.55C3732.88 2557.55 3690.53 2545.63 3662.3 2521.8C3634.43 2497.6 3620.5 2460.02 3620.5 2409.05V2179.15H3713.45V2405.2C3713.45 2433.43 3719.13 2454.33 3730.5 2467.9C3741.86 2481.47 3760.01 2488.25 3784.95 2488.25C3807.68 2488.25 3825.28 2481.47 3837.75 2467.9C3850.58 2454.33 3857 2433.43 3857 2405.2V2179.15H3941.7V2409.05C3941.7 2443.15 3935.1 2471.2 3921.9 2493.2C3909.06 2514.83 3891.28 2530.97 3868.55 2541.6C3845.81 2552.23 3819.41 2557.55 3789.35 2557.55ZM4096.57 2546V2247.9H3993.72V2179.15H4290.17V2247.9H4185.67V2546H4096.57ZM4342.37 2546V2179.15H4431.47V2546H4342.37ZM4509.41 2546V2179.15H4585.31L4773.96 2433.25L4747.56 2488.25V2179.15H4829.51V2546H4762.41L4570.46 2295.2L4591.36 2255.05V2546H4509.41ZM5070.76 2553.7C5034.83 2553.7 5003.29 2547.28 4976.16 2534.45C4949.39 2521.62 4928.49 2501.27 4913.46 2473.4C4898.79 2445.17 4891.46 2408.32 4891.46 2362.85C4891.46 2318.12 4898.79 2281.63 4913.46 2253.4C4928.49 2225.17 4949.39 2204.45 4976.16 2191.25C5003.29 2177.68 5034.83 2170.9 5070.76 2170.9C5093.86 2170.9 5116.41 2173.28 5138.41 2178.05C5160.41 2182.82 5181.49 2189.42 5201.66 2197.85V2278.7C5179.66 2267.33 5159.13 2258.17 5140.06 2251.2C5121.36 2244.23 5101.93 2240.75 5081.76 2240.75C5060.86 2240.75 5042.89 2244.42 5027.86 2251.75C5013.19 2259.08 5002.01 2271.73 4994.31 2289.7C4986.61 2307.3 4982.76 2331.5 4982.76 2362.3C4982.76 2392.73 4986.61 2416.93 4994.31 2434.9C5002.38 2452.5 5013.56 2465.15 5027.86 2472.85C5042.16 2480.55 5058.84 2484.4 5077.91 2484.4C5087.81 2484.4 5096.98 2483.85 5105.41 2482.75C5114.21 2481.28 5121.91 2478.9 5128.51 2475.6V2410.7H5068.01V2341.4H5217.61V2514.1C5194.88 2526.57 5171.04 2536.28 5146.11 2543.25C5121.54 2550.22 5096.43 2553.7 5070.76 2553.7Z" fill="white"/>
<defs>
<linearGradient id="paint0_linear_107_96" x1="1256.5" y1="361" x2="5475.2" y2="361.741" gradientUnits="userSpaceOnUse">
<stop stop-color="#009BD3"/>
<stop offset="1" stop-color="#024B8E"/>
</linearGradient>
</defs>
</svg>
